<?xml version="1.0" encoding="utf-8"?>
<!-- Generator: Adobe Illustrator 24.0.0, SVG Export Plug-In . SVG Version: 6.00 Build 0)  -->
<svg version="1.1" id="Capa_1" xmlns="http://www.w3.org/2000/svg" xmlns:xlink="http://www.w3.org/1999/xlink" x="0px" y="0px"
	 viewBox="0 0 320 240" style="enable-background:new 0 0 320 240;" xml:space="preserve">
<style type="text/css">
	.st0{display:none;}
	.st1{display:inline;fill:none;stroke:#9C9B9B;stroke-width:0.8457;stroke-miterlimit:10;}
	.st2{fill:#FFFFFF;}
	.st3{fill:#FF6200;}
</style>
<g class="st0">
	<rect x="-40.37" y="-79.7" class="st1" width="400" height="400"/>
	<line class="st1" x1="-40.37" y1="320.3" x2="359.63" y2="320.3"/>
	<line class="st1" x1="-40.37" y1="300.3" x2="359.63" y2="300.3"/>
	<line class="st1" x1="-40.37" y1="280.3" x2="359.63" y2="280.3"/>
	<line class="st1" x1="-40.37" y1="260.3" x2="359.63" y2="260.3"/>
	<line class="st1" x1="-40.37" y1="240.3" x2="359.63" y2="240.3"/>
	<line class="st1" x1="-40.37" y1="220.3" x2="359.63" y2="220.3"/>
	<line class="st1" x1="-40.37" y1="200.3" x2="359.63" y2="200.3"/>
	<line class="st1" x1="-40.37" y1="180.3" x2="359.63" y2="180.3"/>
	<line class="st1" x1="-40.37" y1="160.3" x2="359.63" y2="160.3"/>
	<line class="st1" x1="-40.37" y1="140.3" x2="359.63" y2="140.3"/>
	<line class="st1" x1="-40.37" y1="120.3" x2="359.63" y2="120.3"/>
	<line class="st1" x1="-40.37" y1="100.3" x2="359.63" y2="100.3"/>
	<line class="st1" x1="-40.37" y1="80.3" x2="359.63" y2="80.3"/>
	<line class="st1" x1="-40.37" y1="60.3" x2="359.63" y2="60.3"/>
	<line class="st1" x1="-40.37" y1="40.3" x2="359.63" y2="40.3"/>
	<line class="st1" x1="-40.37" y1="20.3" x2="359.63" y2="20.3"/>
	<line class="st1" x1="-40.37" y1="0.3" x2="359.63" y2="0.3"/>
	<line class="st1" x1="-40.37" y1="-19.7" x2="359.63" y2="-19.7"/>
	<line class="st1" x1="-40.37" y1="-39.7" x2="359.63" y2="-39.7"/>
	<line class="st1" x1="-40.37" y1="-59.7" x2="359.63" y2="-59.7"/>
	<line class="st1" x1="359.63" y1="-79.7" x2="359.63" y2="320.3"/>
	<line class="st1" x1="339.63" y1="-79.7" x2="339.63" y2="320.3"/>
	<line class="st1" x1="319.63" y1="-79.7" x2="319.63" y2="320.3"/>
	<line class="st1" x1="299.63" y1="-79.7" x2="299.63" y2="320.3"/>
	<line class="st1" x1="279.63" y1="-79.7" x2="279.63" y2="320.3"/>
	<line class="st1" x1="259.63" y1="-79.7" x2="259.63" y2="320.3"/>
	<line class="st1" x1="239.63" y1="-79.7" x2="239.63" y2="320.3"/>
	<line class="st1" x1="219.63" y1="-79.7" x2="219.63" y2="320.3"/>
	<line class="st1" x1="199.63" y1="-79.7" x2="199.63" y2="320.3"/>
	<line class="st1" x1="179.63" y1="-79.7" x2="179.63" y2="320.3"/>
	<line class="st1" x1="159.63" y1="-79.7" x2="159.63" y2="320.3"/>
	<line class="st1" x1="139.63" y1="-79.7" x2="139.63" y2="320.3"/>
	<line class="st1" x1="119.63" y1="-79.7" x2="119.63" y2="320.3"/>
	<line class="st1" x1="99.63" y1="-79.7" x2="99.63" y2="320.3"/>
	<line class="st1" x1="79.63" y1="-79.7" x2="79.63" y2="320.3"/>
	<line class="st1" x1="59.63" y1="-79.7" x2="59.63" y2="320.3"/>
	<line class="st1" x1="39.63" y1="-79.7" x2="39.63" y2="320.3"/>
	<line class="st1" x1="19.63" y1="-79.7" x2="19.63" y2="320.3"/>
	<line class="st1" x1="-0.37" y1="-79.7" x2="-0.37" y2="320.3"/>
	<line class="st1" x1="-20.37" y1="-79.7" x2="-20.37" y2="320.3"/>
</g>
<g>
	<g>
		<path class="st2" d="M42.86,177.15l6.2,14.61l6.2-14.61h3.24v17.91H56v-6.97l0.23-7.53l-6.23,14.5H48.1l-6.21-14.46l0.25,7.49
			v6.97h-2.5v-17.91H42.86z"/>
		<path class="st2" d="M86.91,195.06c-0.14-0.26-0.25-0.73-0.34-1.4c-1.12,1.1-2.46,1.65-4.01,1.65c-1.39,0-2.53-0.37-3.42-1.11
			c-0.89-0.74-1.33-1.68-1.33-2.82c0-1.39,0.56-2.46,1.67-3.23c1.12-0.77,2.69-1.15,4.71-1.15h2.34v-1.05c0-0.8-0.25-1.43-0.76-1.9
			c-0.5-0.47-1.25-0.71-2.23-0.71c-0.86,0-1.58,0.21-2.16,0.61c-0.58,0.41-0.87,0.91-0.87,1.49h-2.42c0-0.66,0.25-1.31,0.75-1.92
			c0.5-0.62,1.18-1.11,2.03-1.47c0.85-0.36,1.8-0.54,2.82-0.54c1.62,0,2.9,0.38,3.82,1.15c0.92,0.77,1.4,1.82,1.43,3.17v6.13
			c0,1.22,0.16,2.19,0.49,2.92v0.2H86.91z M82.91,193.33c0.76,0,1.47-0.18,2.15-0.55c0.68-0.37,1.17-0.85,1.47-1.44v-2.73h-1.89
			c-2.95,0-4.43,0.82-4.43,2.45c0,0.71,0.25,1.27,0.76,1.67C81.47,193.13,82.12,193.33,82.91,193.33z"/>
		<path class="st2" d="M115.19,183.79c-0.36-0.06-0.76-0.09-1.19-0.09c-1.58,0-2.65,0.64-3.22,1.91v9.45h-2.41v-13.31h2.34
			l0.04,1.54c0.79-1.19,1.91-1.78,3.36-1.78c0.47,0,0.82,0.06,1.07,0.17V183.79z"/>
		<path class="st2" d="M137,188.9l-1.51,1.49v4.67h-2.41v-18.89h2.41v11.43l1.29-1.46l4.39-4.38h2.93l-5.48,5.56l6.12,7.75h-2.83
			L137,188.9z"/>
		<path class="st2" d="M167.83,195.31c-1.91,0-3.46-0.59-4.66-1.78c-1.2-1.19-1.8-2.77-1.8-4.75v-0.42c0-1.32,0.27-2.5,0.8-3.54
			c0.53-1.04,1.28-1.85,2.24-2.44c0.96-0.59,2-0.88,3.12-0.88c1.83,0,3.26,0.57,4.27,1.71c1.02,1.14,1.52,2.77,1.52,4.9v0.95h-9.55
			c0.03,1.31,0.44,2.37,1.22,3.18c0.78,0.81,1.76,1.21,2.96,1.21c0.85,0,1.57-0.16,2.16-0.49c0.59-0.33,1.11-0.76,1.55-1.3
			l1.47,1.08C171.97,194.45,170.2,195.31,167.83,195.31z M167.53,183.38c-0.97,0-1.79,0.33-2.45,1c-0.66,0.67-1.07,1.6-1.22,2.81
			h7.06v-0.17c-0.07-1.16-0.4-2.05-0.99-2.69C169.34,183.69,168.54,183.38,167.53,183.38z"/>
		<path class="st2" d="M195.05,178.53v3.22h2.63v1.76h-2.63v8.26c0,0.53,0.12,0.93,0.35,1.2c0.23,0.27,0.63,0.4,1.2,0.4
			c0.28,0,0.66-0.05,1.15-0.15v1.83c-0.63,0.16-1.25,0.24-1.85,0.24c-1.08,0-1.89-0.31-2.44-0.92c-0.55-0.62-0.82-1.49-0.82-2.62
			v-8.25h-2.57v-1.76h2.57v-3.22H195.05z"/>
		<path class="st2" d="M216.17,178.22c0-0.37,0.12-0.68,0.36-0.93c0.24-0.25,0.59-0.38,1.06-0.38c0.47,0,0.82,0.13,1.07,0.38
			c0.24,0.25,0.37,0.57,0.37,0.93c0,0.37-0.12,0.68-0.37,0.92c-0.24,0.25-0.6,0.37-1.07,0.37c-0.47,0-0.82-0.12-1.06-0.37
			C216.29,178.9,216.17,178.59,216.17,178.22z M218.77,195.06h-2.41v-13.31h2.41V195.06z"/>
		<path class="st2" d="M240.57,181.75l0.08,1.67c1.08-1.28,2.48-1.92,4.22-1.92c2.98,0,4.48,1.59,4.51,4.76v8.79h-2.41v-8.81
			c-0.01-0.96-0.24-1.67-0.7-2.13c-0.46-0.46-1.17-0.69-2.13-0.69c-0.78,0-1.47,0.2-2.06,0.59c-0.59,0.39-1.05,0.91-1.38,1.55v9.48
			h-2.41v-13.31H240.57z"/>
		<path class="st2" d="M268.09,188.3c0-2.07,0.51-3.72,1.52-4.95c1.02-1.23,2.36-1.84,4.04-1.84c1.72,0,3.06,0.57,4.02,1.72
			l0.12-1.48h2.2v12.99c0,1.72-0.54,3.08-1.62,4.07c-1.08,0.99-2.53,1.49-4.36,1.49c-1.02,0-2.01-0.21-2.98-0.62
			c-0.97-0.41-1.72-0.97-2.23-1.69l1.25-1.37c1.03,1.21,2.3,1.81,3.79,1.81c1.17,0,2.09-0.31,2.74-0.93
			c0.66-0.62,0.98-1.5,0.98-2.63v-1.14c-0.96,1.05-2.28,1.57-3.95,1.57c-1.65,0-2.98-0.63-4.01-1.88
			C268.6,192.17,268.09,190.46,268.09,188.3z M270.52,188.55c0,1.5,0.33,2.68,0.98,3.54c0.65,0.86,1.56,1.29,2.74,1.29
			c1.52,0,2.64-0.65,3.35-1.96v-6.08c-0.74-1.27-1.85-1.91-3.32-1.91c-1.17,0-2.09,0.43-2.75,1.29
			C270.85,185.59,270.52,186.87,270.52,188.55z"/>
	</g>
	<polygon class="st3" points="58.05,115.64 58.05,132.88 98.61,132.88 98.61,113.27 80.53,113.27 98.61,82.06 98.61,51.78 	"/>
	<path class="st2" d="M193.74,153.03c-4.19,1.56-8.7,2.42-13.39,2.42v0.07c-15.46,0-28.87-9.2-35.63-22.72h-17.26v22.72h-18.68V40.3
		h18.68v72.97h12.6c-0.01-0.14-0.01-0.27-0.01-0.4V83.02c0-15.17,7.48-28.48,18.75-36.05l6.32,19.2c-3.27,3.85-5.26,8.95-5.26,14.53
		v34.52c0,12,9.2,21.74,20.54,21.74h0.41v-0.05h0.41c2.39,0,4.68-0.43,6.81-1.23L193.74,153.03z"/>
	<path class="st3" d="M220.63,82.95v29.85c0,14.24-6.6,26.85-16.73,34.6l-6.26-19.16c2.58-3.63,4.11-8.16,4.11-13.06V80.66
		c0-12-9.19-21.74-20.53-21.74h-0.41v0.05h-0.4c-1.79,0-3.52,0.24-5.18,0.7l-5.79-17.72c3.47-1.03,7.12-1.58,10.9-1.58V40.3
		C202.59,40.3,220.63,59.4,220.63,82.95z"/>
	<g>
		<path class="st3" d="M242.56,156.56c-6.37,0-11.56-1.66-15.56-4.99c-4-3.33-6-7.78-6-13.35v-1.17c0-3.71,0.89-7.02,2.67-9.93
			c1.78-2.91,4.27-5.19,7.48-6.84c3.2-1.65,6.67-2.47,10.41-2.47c6.11,0,10.87,1.6,14.26,4.8c3.39,3.2,5.08,7.78,5.08,13.75v2.66
			h-31.86c0.12,3.68,1.47,6.66,4.06,8.93c2.59,2.27,5.89,3.4,9.89,3.4c2.84,0,5.24-0.46,7.22-1.38c1.97-0.92,3.69-2.14,5.17-3.66
			l4.91,3.04C256.35,154.16,250.44,156.56,242.56,156.56z M241.56,123.06c-3.25,0-5.97,0.94-8.17,2.82
			c-2.2,1.88-3.56,4.51-4.09,7.89h23.56v-0.48c-0.23-3.25-1.33-5.76-3.3-7.55C247.58,123.95,244.92,123.06,241.56,123.06z"/>
	</g>
</g>
</svg>
