<?xml version="1.0" encoding="utf-8"?>
<!-- Generator: Adobe Illustrator 24.0.0, SVG Export Plug-In . SVG Version: 6.00 Build 0)  -->
<svg version="1.1" id="Capa_1" xmlns="http://www.w3.org/2000/svg" xmlns:xlink="http://www.w3.org/1999/xlink" x="0px" y="0px"
	 viewBox="0 0 400 400" style="enable-background:new 0 0 400 400;" xml:space="preserve">
<style type="text/css">
	.st0{fill:#FF6200;}
	.st1{fill:#4D148C;}
</style>
<g>
	<g>
		<path d="M84.29,258.98l6.11,15.08l6.11-15.08h3.2v18.48h-2.47v-7.2l0.23-7.77l-6.14,14.97h-1.89l-6.13-14.93l0.24,7.73v7.2h-2.47
			v-18.48H84.29z"/>
		<path d="M127.73,277.46c-0.14-0.27-0.25-0.75-0.33-1.45c-1.11,1.13-2.42,1.7-3.96,1.7c-1.37,0-2.49-0.38-3.37-1.15
			c-0.88-0.77-1.32-1.74-1.32-2.91c0-1.43,0.55-2.54,1.65-3.33c1.1-0.79,2.65-1.19,4.64-1.19h2.31v-1.08c0-0.82-0.25-1.47-0.75-1.96
			c-0.5-0.49-1.23-0.73-2.2-0.73c-0.85,0-1.56,0.21-2.13,0.63c-0.57,0.42-0.86,0.94-0.86,1.54h-2.39c0-0.69,0.25-1.35,0.74-1.99
			c0.49-0.64,1.16-1.15,2-1.52c0.84-0.37,1.77-0.56,2.78-0.56c1.6,0,2.86,0.4,3.76,1.19c0.91,0.79,1.38,1.88,1.41,3.27v6.32
			c0,1.26,0.16,2.26,0.49,3.01v0.2H127.73z M123.79,275.67c0.75,0,1.45-0.19,2.12-0.57s1.15-0.88,1.45-1.49v-2.82h-1.86
			c-2.91,0-4.37,0.84-4.37,2.53c0,0.74,0.25,1.31,0.75,1.73C122.37,275.47,123.01,275.67,123.79,275.67z"/>
		<path d="M155.62,265.84c-0.36-0.06-0.75-0.09-1.17-0.09c-1.56,0-2.62,0.66-3.17,1.97v9.75h-2.38v-13.74h2.31l0.04,1.59
			c0.78-1.23,1.88-1.84,3.31-1.84c0.46,0,0.81,0.06,1.05,0.18V265.84z"/>
		<path d="M177.13,271.1l-1.49,1.54v4.82h-2.38v-19.5h2.38v11.79l1.27-1.51l4.33-4.52h2.89l-5.41,5.74l6.04,8h-2.79L177.13,271.1z"
			/>
		<path d="M207.54,277.72c-1.88,0-3.42-0.61-4.6-1.83c-1.18-1.22-1.77-2.86-1.77-4.91v-0.43c0-1.36,0.26-2.58,0.79-3.65
			c0.53-1.07,1.26-1.91,2.21-2.51c0.95-0.61,1.97-0.91,3.08-0.91c1.81,0,3.21,0.59,4.21,1.76s1.5,2.86,1.5,5.05v0.98h-9.42
			c0.03,1.35,0.43,2.45,1.2,3.28c0.77,0.83,1.74,1.25,2.92,1.25c0.84,0,1.55-0.17,2.13-0.51c0.58-0.34,1.09-0.79,1.53-1.35
			l1.45,1.12C211.61,276.83,209.87,277.72,207.54,277.72z M207.24,265.4c-0.96,0-1.76,0.34-2.42,1.04c-0.65,0.69-1.05,1.66-1.21,2.9
			h6.96v-0.18c-0.07-1.19-0.39-2.12-0.98-2.77C209.02,265.73,208.23,265.4,207.24,265.4z"/>
		<path d="M234.37,260.4v3.33h2.59v1.82h-2.59v8.53c0,0.55,0.12,0.96,0.35,1.24c0.23,0.28,0.63,0.41,1.18,0.41
			c0.27,0,0.65-0.05,1.13-0.15v1.89c-0.63,0.17-1.23,0.25-1.82,0.25c-1.06,0-1.86-0.32-2.4-0.95c-0.54-0.63-0.81-1.54-0.81-2.7
			v-8.52h-2.53v-1.82H232v-3.33H234.37z"/>
		<path d="M255.2,260.08c0-0.38,0.12-0.7,0.35-0.96c0.24-0.26,0.58-0.39,1.05-0.39c0.46,0,0.81,0.13,1.05,0.39
			c0.24,0.26,0.36,0.58,0.36,0.96s-0.12,0.7-0.36,0.95c-0.24,0.25-0.59,0.38-1.05,0.38c-0.46,0-0.81-0.13-1.05-0.38
			C255.32,260.78,255.2,260.47,255.2,260.08z M257.77,277.46h-2.38v-13.74h2.38V277.46z"/>
		<path d="M279.26,263.73l0.08,1.73c1.06-1.32,2.45-1.98,4.16-1.98c2.94,0,4.42,1.64,4.45,4.91v9.08h-2.38v-9.09
			c-0.01-0.99-0.24-1.72-0.69-2.2c-0.45-0.47-1.15-0.71-2.1-0.71c-0.77,0-1.45,0.2-2.03,0.61c-0.58,0.41-1.04,0.94-1.36,1.6v9.79
			h-2.38v-13.74H279.26z"/>
		<path d="M306.41,270.48c0-2.14,0.5-3.84,1.5-5.11c1-1.27,2.33-1.9,3.98-1.9c1.7,0,3.02,0.59,3.97,1.78l0.12-1.52h2.17v13.41
			c0,1.78-0.53,3.18-1.6,4.2s-2.5,1.54-4.3,1.54c-1,0-1.98-0.21-2.94-0.63c-0.96-0.42-1.69-1-2.2-1.74l1.23-1.41
			c1.02,1.24,2.27,1.87,3.74,1.87c1.16,0,2.06-0.32,2.7-0.96s0.97-1.55,0.97-2.72v-1.18c-0.95,1.08-2.25,1.63-3.89,1.63
			c-1.63,0-2.94-0.65-3.95-1.94C306.91,274.48,306.41,272.72,306.41,270.48z M308.8,270.75c0,1.55,0.32,2.77,0.96,3.65
			c0.64,0.88,1.54,1.33,2.7,1.33c1.5,0,2.6-0.67,3.3-2.02v-6.27c-0.73-1.31-1.82-1.97-3.28-1.97c-1.16,0-2.06,0.44-2.71,1.33
			C309.13,267.69,308.8,269.01,308.8,270.75z"/>
	</g>
	<polygon class="st0" points="99.27,195.49 99.27,213.28 139.27,213.28 139.27,193.04 121.44,193.04 139.27,160.83 139.27,129.58 	
		"/>
	<path class="st1" d="M233.08,234.08c-4.13,1.61-8.58,2.49-13.21,2.49v0.07c-15.24,0-28.47-9.5-35.13-23.45h-17.02v23.45H149.3
		V117.73h18.42v75.31h12.43c-0.01-0.14-0.01-0.28-0.01-0.42v-30.81c0-15.66,7.38-29.4,18.49-37.21l6.23,19.82
		c-3.22,3.98-5.19,9.24-5.19,15v35.63c0,12.39,9.07,22.44,20.25,22.44h0.4v-0.05h0.4c2.36,0,4.61-0.45,6.71-1.26L233.08,234.08z"/>
	<path class="st0" d="M259.6,161.75v30.81c0,14.7-6.5,27.72-16.5,35.71l-6.17-19.77c2.55-3.75,4.06-8.42,4.06-13.48v-35.63
		c0-12.39-9.06-22.44-20.25-22.44h-0.4V137h-0.4c-1.77,0-3.47,0.25-5.1,0.72l-5.71-18.29c3.42-1.06,7.03-1.63,10.75-1.63v-0.07
		C241.82,117.73,259.6,137.44,259.6,161.75z"/>
	<g>
		<path class="st0" d="M281.23,237.73c-6.29,0-11.4-1.72-15.35-5.15c-3.94-3.43-5.92-8.03-5.92-13.78v-1.21
			c0-3.83,0.88-7.24,2.64-10.25c1.76-3.01,4.21-5.36,7.37-7.06c3.16-1.7,6.58-2.55,10.27-2.55c6.03,0,10.72,1.65,14.06,4.96
			c3.34,3.3,5.01,8.03,5.01,14.19v2.75h-31.42c0.11,3.8,1.45,6.88,4.01,9.22c2.56,2.34,5.81,3.51,9.75,3.51
			c2.8,0,5.17-0.48,7.12-1.43c1.94-0.95,3.64-2.21,5.1-3.78l4.84,3.14C294.83,235.25,289,237.73,281.23,237.73z M280.24,203.15
			c-3.2,0-5.89,0.97-8.06,2.91c-2.17,1.94-3.52,4.65-4.03,8.15h23.23v-0.5c-0.23-3.35-1.32-5.95-3.26-7.79
			C286.18,204.07,283.55,203.15,280.24,203.15z"/>
	</g>
</g>
</svg>
